<svg width="101" height="52" viewBox="0 0 101 52" fill="none" xmlns="http://www.w3.org/2000/svg">
<g clip-path="url(#clip0_1343_2096)">
<path fill-rule="evenodd" clip-rule="evenodd" d="M13.2459 14.95C14.9016 14.7875 19.7033 12.1875 22.6836 9.9125C25.0016 8.125 25.3328 6.5 24.3393 6.0125C23.3459 5.525 21.1934 6.5 19.041 8.125C16.8885 9.75 14.2393 12.8375 13.2459 14.95ZM0 15.275C2.81475 17.7125 6.78852 16.9 6.78852 16.9C6.78852 16.9 7.61639 14.1375 9.10656 11.7C10.7623 8.9375 16.2262 3.4125 22.1869 2.6C28.1475 1.625 29.8033 3.4125 29.8033 5.2C29.8033 6.9875 28.4787 10.8875 22.6836 13.975C16.8885 17.0625 12.7492 17.7125 12.7492 17.7125C12.7492 17.7125 12.5836 18.2 12.7492 19.0125C12.9148 19.825 13.0803 22.1 16.2262 22.9125C19.3721 23.725 23.677 21.6125 27.8164 18.0375C31.9557 14.4625 33.4459 12.1875 42.2213 6.825C50.9967 1.4625 65.5672 -1.4625 79.1443 0.812502C92.8869 3.0875 98.1852 8.775 100.172 13C102.159 17.225 100.669 22.2625 96.8607 26.4875C93.218 30.7125 86.7607 33.6375 77.3229 33.15C68.0508 32.6625 63.5803 25.675 64.5738 26.8125C65.7328 27.95 57.2885 20.9625 67.2229 28.275C73.3492 32.825 81.1311 32.5 87.0918 30.225C90.5688 28.7625 93.218 26.4875 95.0393 24.2125C99.6754 18.2 96.1984 10.5625 86.2639 6.5C83.4492 5.3625 80.6344 4.55 77.4885 4.0625C70.2033 2.925 61.9246 3.4125 52.3213 5.6875C38.4131 8.9375 31.2934 18.3625 28.8098 20.6375C26.3262 22.75 21.5246 27.3 17.2197 28.275C12.9148 29.25 8.77541 27.625 7.28525 25.025C5.79508 22.425 6.45738 18.85 6.45738 18.85C6.45738 18.85 5.96066 18.85 4.47049 18.3625C2.98033 17.875 1.82131 17.0625 0 15.275Z" fill="white"/>
<path fill-rule="evenodd" clip-rule="evenodd" d="M34.4391 20.9625H39.903L37.0882 13.4875L34.4391 20.9625ZM34.1079 22.1L32.4522 26.65C32.4522 26.8125 32.2866 27.1375 32.2866 27.3H30.6309C30.7964 27.1375 30.962 26.8125 30.962 26.65L36.5915 11.375C36.5915 11.2125 36.7571 10.8875 36.7571 10.725H39.2407C39.2407 10.8875 39.2407 11.05 39.4063 11.2125L45.2014 26.4875C45.2014 26.65 45.3669 26.975 45.5325 27.1375H42.221C42.221 26.975 42.221 26.65 42.0554 26.4875L40.3997 21.9375H34.1079V22.1Z" fill="white" fill-opacity="0.5"/>
<path fill-rule="evenodd" clip-rule="evenodd" d="M46.0293 26.325L46.526 24.375C47.0227 24.7 47.3539 25.025 47.685 25.35C48.5129 26 49.5063 26.325 50.4998 26.325C51.4932 26.325 52.3211 26 52.9834 25.35C53.4801 24.8625 53.8113 24.2125 53.8113 23.4C53.8113 22.425 53.4801 21.775 52.6522 21.125C52.3211 20.8 51.4932 20.475 50.1686 19.825C48.8441 19.175 47.8506 18.525 47.1883 17.875C46.526 17.0625 46.1949 16.25 46.1949 15.1125C46.1949 14.1375 46.526 13.325 47.0227 12.675C48.0162 11.2125 49.6719 10.5625 51.8244 10.5625C53.149 10.5625 54.4736 10.8875 55.7982 11.5375L55.3014 13.325C53.9768 12.5125 52.8178 12.025 51.8244 12.025C50.9965 12.025 50.3342 12.35 49.6719 12.8375C49.1752 13.325 49.0096 13.8125 49.0096 14.4625C49.0096 15.1125 49.1752 15.7625 49.6719 16.0875C50.1686 16.575 50.9965 17.0625 52.4867 17.7125C53.9768 18.3625 55.1359 19.175 55.6326 19.825C56.2949 20.6375 56.626 21.6125 56.626 22.75C56.626 23.725 56.2949 24.5375 55.7982 25.35C54.8047 26.975 53.149 27.7875 50.6654 27.7875C49.8375 27.7875 49.0096 27.625 48.3473 27.4625C47.685 27.1375 47.0227 26.8125 46.0293 26.325Z" fill="white" fill-opacity="0.5"/>
<path fill-rule="evenodd" clip-rule="evenodd" d="M79.1449 13.8125V26.4875C79.1449 26.8125 79.1449 26.975 79.3105 27.3H77.8203C77.8203 27.1375 77.9859 26.8125 77.9859 26.4875V11.5375C77.9859 11.2125 77.9859 10.8875 77.8203 10.725H80.4695C80.4695 10.8875 80.6351 11.05 80.8006 11.375L90.0728 24.05V11.5375C90.0728 11.2125 90.0728 11.05 89.9072 10.725H91.3974C91.3974 10.8875 91.2318 11.2125 91.2318 11.5375V26.65C91.2318 26.975 91.2318 27.3 91.3974 27.4625H88.9138C88.9138 27.3 88.7482 27.1375 88.5826 26.8125L79.1449 13.8125Z" fill="white" fill-opacity="0.5"/>
<path fill-rule="evenodd" clip-rule="evenodd" d="M70.0374 10.2375C72.1899 11.05 74.0112 13 74.8391 15.275H70.0374V10.2375ZM64.9046 9.91246C65.5669 9.74996 66.2292 9.58746 66.8915 9.58746C67.5538 9.58746 68.3817 9.74996 69.044 9.91246V15.275H64.9046V9.91246V9.91246ZM59.1096 15.1125C60.103 12.8375 61.7587 11.05 63.9112 10.075V15.1125H59.1096ZM75.6669 19.0125C75.6669 24.2125 71.8587 28.4375 67.0571 28.4375C62.2555 28.4375 58.4473 24.2125 58.4473 19.0125C58.4473 18.0375 58.6128 16.9 58.944 16.0875H75.3358C75.5014 17.0625 75.6669 18.0375 75.6669 19.0125Z" fill="white" fill-opacity="0.5"/>
<path d="M16.8882 41.925C16.8882 43.0625 16.5571 44.3625 15.2325 45.0125C15.0669 44.6875 14.7358 44.2 14.5702 43.875V44.525H12.0866C11.921 44.6875 11.921 44.6875 11.7555 44.85C12.0866 45.175 12.4178 45.5 12.5833 45.9875C12.9145 45.6625 13.2456 45.175 13.4112 45.0125L14.5702 45.6625C14.0735 46.15 13.5768 46.6375 13.0801 46.9625C13.7423 47.45 14.5702 47.9375 15.0669 48.425L14.0735 49.5625C13.9079 49.2375 13.5768 48.9125 13.2456 48.75C13.2456 49.8875 13.0801 50.8625 12.7489 51.1875C12.4178 51.675 11.921 51.8375 11.2587 51.8375C11.0932 51.8375 10.762 51.8375 10.4309 51.8375C10.4309 51.5125 10.2653 50.8625 10.0997 50.5375C10.4309 50.5375 10.762 50.5375 11.0932 50.5375C11.4243 50.5375 11.5899 50.5375 11.7555 50.2125C11.921 50.05 12.0866 49.5625 12.0866 49.075C11.2587 49.8875 10.0997 50.5375 9.10628 51.025C8.94071 50.7 8.60956 50.2125 8.27841 49.8875C9.603 49.4 11.0932 48.5875 11.921 47.6125C11.5899 47.45 11.5899 47.2875 11.4243 47.125C10.5964 47.775 9.603 48.425 8.77513 48.9125C8.60956 48.5875 8.27841 48.1 8.11284 47.9375C9.10628 47.6125 10.2653 46.8 10.9276 46.15C10.762 45.9875 10.762 45.825 10.5964 45.825C10.0997 46.3125 9.43743 46.6375 8.94071 46.8C8.77513 46.6375 8.27841 46.15 7.94727 45.825C8.77513 45.5 9.603 45.0125 10.2653 44.525H8.27841V43.225H9.603C9.43743 42.9 9.27186 42.4125 8.94071 42.25L9.93415 41.7625H8.44399V40.4625H10.5964C10.4309 40.1375 10.2653 39.8125 10.0997 39.65L11.4243 39.1625C11.7555 39.65 12.0866 40.1375 12.2522 40.4625H14.4046V41.7625H12.5833L13.7423 42.25C13.5768 42.575 13.2456 42.9 13.0801 43.225H14.5702V43.7125C15.3981 43.225 15.5637 42.575 15.5637 41.7625V39.8125H19.703V42.7375C19.703 43.0625 19.703 43.225 19.8686 43.225H20.1997C20.3653 43.225 20.5309 43.225 20.6964 43.0625C20.6964 43.3875 20.6964 43.875 20.862 44.3625C20.6964 44.3625 20.3653 44.525 20.1997 44.525H19.703C18.544 44.525 18.3784 44.0375 18.3784 42.7375V41.275H17.0538V41.925H16.8882ZM10.2653 41.7625C10.5964 42.0875 10.9276 42.575 10.9276 42.9L10.4309 43.0625H11.7555C11.921 42.575 12.2522 42.0875 12.2522 41.6H10.2653V41.7625ZM20.3653 45.3375C20.0341 47.125 19.3719 48.425 18.544 49.4C19.2063 49.8875 20.0341 50.375 21.0276 50.5375C20.6964 50.8625 20.3653 51.35 20.0341 51.8375C19.0407 51.5125 18.2128 51.025 17.385 50.375C16.5571 51.025 15.7292 51.5125 14.7358 51.8375C14.5702 51.5125 14.2391 50.8625 13.9079 50.5375C14.9014 50.375 15.7292 49.8875 16.5571 49.4C15.8948 48.5875 15.5637 47.6125 15.0669 46.6375L15.7292 46.475H14.7358V45.0125H19.2063H19.5374L20.3653 45.3375ZM16.3915 46.475C16.7227 47.125 17.0538 47.775 17.5505 48.425C18.0473 47.775 18.3784 47.125 18.7096 46.475H16.3915Z" fill="white"/>
<path d="M44.5405 49.8875H46.3618V51.025H44.5405V52H42.8848V51.025H34.2749V49.8875H36.2618V46.6375H34.7717V45.5C34.6061 45.3375 34.2749 45.175 34.1094 45.175C34.7717 44.525 34.9372 43.875 34.9372 43.225V42.25H40.07V44.525H35.9307C35.7651 44.85 35.5995 45.175 35.434 45.5H40.7323C40.5668 45.175 40.4012 44.6875 40.2356 44.525C40.8979 44.525 41.5602 44.3625 42.0569 44.2C41.7258 43.875 41.3946 43.55 41.0635 43.225L41.5602 43.0625H40.7323V42.25C40.5668 42.0875 40.4012 41.7625 40.2356 41.7625C41.229 41.4375 41.3946 40.95 41.3946 40.4625V39.8125H45.0372V40.95C45.0372 41.1125 45.0372 41.275 45.2028 41.275H45.6995C45.8651 41.275 46.1963 41.275 46.3618 41.275C46.3618 41.6 46.3618 41.925 46.3618 42.25C46.1963 42.25 45.8651 42.25 45.534 42.25H45.0372L45.8651 42.575C45.534 43.225 45.0372 43.875 44.5405 44.3625C45.2028 44.525 45.8651 44.6875 46.5274 44.6875C46.1963 45.0125 46.0307 45.3375 45.8651 45.6625H46.1963V46.8H44.7061V49.8875H44.5405ZM36.7586 40.7875H34.4405V39.975H36.7586V39.325H38.0831V39.975H40.2356V40.7875H38.0831V41.1125H39.9045V41.925H34.7717V41.1125H36.7586V40.7875ZM36.0963 43.0625C36.0963 43.3875 36.0963 43.55 36.0963 43.7125H36.9241V43.0625H36.0963ZM37.752 46.6375V47.125H42.8848V46.6375H37.752ZM37.752 48.425H42.8848V47.9375H37.752V48.425ZM42.8848 49.8875V49.4H37.752V49.8875H42.8848ZM38.7454 43.0625H37.9176V43.7125H38.7454V43.0625ZM45.534 45.5C44.7061 45.3375 44.0438 45.175 43.3815 44.85C42.7192 45.175 42.0569 45.3375 41.229 45.5H45.534ZM42.5536 40.7875C42.5536 41.275 42.2225 41.7625 41.7258 42.25H44.8717C43.8782 42.25 43.7127 41.7625 43.7127 40.95H42.5536V40.7875ZM42.2225 43.0625C42.3881 43.3875 42.7192 43.55 43.0504 43.7125C43.3815 43.55 43.7127 43.3875 43.8782 43.0625H42.2225Z" fill="white"/>
<path d="M64.4076 47.9375C64.242 47.6125 63.9108 46.9625 63.5797 46.475V51.8375H62.0895V46.9625C61.5928 47.9375 61.0961 48.9125 60.5994 49.5625C60.4338 49.075 60.1026 48.425 59.7715 48.1C60.5994 47.2875 61.2616 45.825 61.7584 44.525H59.9371V43.0625H61.9239V41.6C61.4272 41.6 60.9305 41.7625 60.4338 41.7625C60.4338 41.4375 60.1026 40.95 59.9371 40.4625C61.4272 40.3 63.2485 39.8125 64.242 39.325L65.2354 40.625C64.7387 40.7875 64.0764 40.95 63.4141 41.1125V42.9H65.2354V44.3625H63.4141V44.525C63.7453 44.85 64.9043 46.15 65.2354 46.475L64.4076 47.9375ZM71.0305 48.5875V52H69.3748V48.75L65.2354 49.4L64.9043 47.9375L69.2092 47.125V39.325H70.8649V46.8L72.1895 46.6375L72.5207 48.1L71.0305 48.5875ZM67.719 46.6375C67.2223 45.9875 66.3944 45.175 65.5666 44.525L66.56 43.55C67.3879 44.0375 68.3813 44.85 68.7125 45.5L67.719 46.6375ZM68.0502 43.225C67.719 42.575 66.7256 41.7625 66.0633 41.275L67.0567 40.3C67.719 40.7875 68.7125 41.6 69.2092 42.25L68.0502 43.225Z" fill="white"/>
<path d="M90.5673 46.6376C90.0705 46.8001 89.5738 46.9626 89.0771 46.9626V50.2126C89.0771 51.0251 88.9115 51.3501 88.4148 51.6751C87.9181 51.8376 87.2558 52.0001 86.4279 52.0001C86.4279 51.6751 86.0968 51.0251 85.9312 50.5376C86.4279 50.5376 87.0902 50.5376 87.2558 50.5376C87.4214 50.5376 87.5869 50.5376 87.5869 50.2126V47.4501L86.2623 47.7751L85.7656 46.3126C86.2623 46.1501 86.9246 46.1501 87.5869 45.9876V43.5501H86.0968V42.0876H87.5869V39.4876H89.2427V42.0876H90.5673V43.5501H89.2427V45.5001L90.5673 45.1751V46.6376ZM98.0181 44.6876C97.5214 46.4751 96.6935 47.9376 95.5345 49.0751C96.3623 49.7251 97.5214 50.0501 98.6804 50.3751C98.3492 50.7001 97.8525 51.3501 97.6869 51.6751C96.3623 51.3501 95.2033 50.7001 94.3755 50.0501C93.382 50.7001 92.0574 51.3501 90.7328 51.6751C90.5673 51.1876 90.2361 50.5376 89.905 50.2126C91.064 49.8876 92.223 49.5626 93.2164 48.9126C92.3886 47.9376 91.7263 46.9626 91.2296 45.6626L91.5607 45.5001H90.8984V44.0376H93.5476V42.4126H90.5673V40.9501H93.5476V39.0001H95.2033V40.9501H98.1836V42.4126H95.2033V44.0376H96.8591H97.1902L98.0181 44.6876ZM92.7197 45.8251C93.0509 46.6376 93.7132 47.4501 94.3755 48.2626C95.0377 47.6126 95.7 46.8001 96.0312 45.8251H92.7197Z" fill="white"/>
</g>
<defs>
<clipPath id="clip0_1343_2096">
<rect width="101" height="52" fill="white"/>
</clipPath>
</defs>
</svg>
